<svg xmlns="http://www.w3.org/2000/svg" viewBox="0 0 512 512"><g transform="translate(0 448)"><path fill="#27ae60" d="M 29.996094 336 A 240 240 0 0 0 256 496 A 240 240 0 0 0 481.96875 336 L 29.996094 336 z " transform="translate(0 -448)"/><path fill="#fff" d="M 30.03125 176 A 240 240 0 0 0 16 256 A 240 240 0 0 0 29.996094 336 L 481.96875 336 A 240 240 0 0 0 496 256 A 240 240 0 0 0 482.00391 176 L 30.03125 176 z " transform="translate(0 -448)"/><path fill="#f39c12" d="M 256 16 A 240 240 0 0 0 30.03125 176 L 482.00391 176 A 240 240 0 0 0 256 16 z " transform="translate(0 -448)"/><path fill="#008" d="m 326,-192 a 70,70 0 0 1 -70,70 70,70 0 0 1 -70,-70 70,70 0 0 1 70,-70 70,70 0 0 1 70,70 z"/><path fill="#fff" d="M 317.25,-192 A 61.25,61.25 0 0 1 256,-130.75 61.25,61.25 0 0 1 194.75,-192 61.25,61.25 0 0 1 256,-253.25 61.25,61.25 0 0 1 317.25,-192 Z"/><path fill="#008" d="M268.25-192A12.25 12.25 0 01256-179.75 12.25 12.25 0 01243.75-192 12.25 12.25 0 01256-204.25 12.25 12.25 0 01268.25-192zM319.7623-183.60553a3.0625 3.0625 0 01-3.43604 2.63656 3.0625 3.0625 0 01-2.63656-3.43604 3.0625 3.0625 0 013.43604-2.63656 3.0625 3.0625 0 012.63656 3.43604z"/><path fill="#008" d="M256-130.75l2.1-36.75c0 0-2.1-17.5-2.1-17.5 0 0-2.1 17.5-2.1 17.5l2.1 36.75zM315.417-167.38867a3.0625 3.0625 0 01-4.00135 1.65741 3.0625 3.0625 0 01-1.65741-4.00135 3.0625 3.0625 0 014.00135-1.65741 3.0625 3.0625 0 011.65741 4.00135zM240.14733-132.83704l11.54005-34.95426c0 0 2.50089-17.44722 2.50089-17.44722 0 0-6.55778 16.36018-6.55778 16.36018l-7.48316 36.0413zM307.02253-152.84903a3.0625 3.0625 0 01-4.29397.56531 3.0625 3.0625 0 01-.56531-4.29397 3.0625 3.0625 0 014.29397-.56531 3.0625 3.0625 0 01.56531 4.29397zM225.375-138.95594l20.19365-30.77644c0 0 6.93135-16.20544 6.93135-16.20544 0 0-10.56865 14.10544-10.56865 14.10544l-16.55635 32.87644zM295.15097-140.97747a3.0625 3.0625 0 01-4.29397-.56531 3.0625 3.0625 0 01.56531-4.29397 3.0625 3.0625 0 014.29397.56531 3.0625 3.0625 0 01-.56531 4.29397zM212.68971-148.68971l27.4711-24.50125c0 0 10.88944-13.85929 10.88944-13.85929 0 0-13.85929 10.88944-13.85929 10.88944l-24.50125 27.4711zM280.61133-132.583a3.0624999 3.0624999 0 01-4.00135-1.65741 3.0624999 3.0624999 0 011.65741-4.00135 3.0624999 3.0624999 0 014.00135 1.65741 3.0624999 3.0624999 0 01-1.65741 4.00135zM202.95594-161.375l32.87644-16.55635c0 0 14.10544-10.56865 14.10544-10.56865 0 0-16.20544 6.93135-16.20544 6.93135l-30.77644 20.19365zM264.39447-128.2377a3.0625 3.0625 0 01-3.43604-2.63656 3.0625 3.0625 0 012.63656-3.43604 3.0625 3.0625 0 013.43604 2.63656 3.0625 3.0625 0 01-2.63656 3.43604zM196.83704-176.14733l36.0413-7.48316c0 0 16.36018-6.55778 16.36018-6.55778 0 0-17.44722 2.50089-17.44722 2.50089l-34.95426 11.54005zM247.60553-128.2377a3.0625 3.0625 0 01-2.63656-3.43604 3.0625 3.0625 0 013.43604-2.63656 3.0625 3.0625 0 012.63656 3.43604 3.0625 3.0625 0 01-3.43604 2.63656zM194.75-192l36.75 2.1c0 0 17.5-2.1 17.5-2.1 0 0-17.5-2.1-17.5-2.1l-36.75 2.1zM231.38867-132.583a3.0625 3.0625 0 01-1.65741-4.00135 3.0625 3.0625 0 014.00135-1.65741 3.0625 3.0625 0 011.65741 4.00135 3.0625 3.0625 0 01-4.00135 1.65741zM196.83704-207.85267l34.95426 11.54005c0 0 17.44722 2.50089 17.44722 2.50089 0 0-16.36018-6.55778-16.36018-6.55778l-36.0413-7.48316zM216.84903-140.97747a3.0624999 3.0624999 0 01-.56531-4.29397 3.0624999 3.0624999 0 014.29397-.56531 3.0624999 3.0624999 0 01.56531 4.29397 3.0624999 3.0624999 0 01-4.29397.56531zM202.95595-222.625l30.77643 20.19365c0 0 16.20544 6.93135 16.20544 6.93135 0 0-14.10544-10.56865-14.10544-10.56865L202.95595-222.625zM204.97747-152.84903a3.0624999 3.0624999 0 01.56531-4.29397 3.0624999 3.0624999 0 014.29397.56531 3.0624999 3.0624999 0 01-.56531 4.29397 3.0624999 3.0624999 0 01-4.29397-.56531zM212.68971-235.31029l24.50125 27.4711c0 0 13.85929 10.88944 13.85929 10.88944 0 0-10.88944-13.85929-10.88944-13.85929l-27.4711-24.50125zM196.583-167.38867a3.0624998 3.0624998 0 011.65741-4.00135 3.0624998 3.0624998 0 014.00135 1.65741 3.0624998 3.0624998 0 01-1.65741 4.00135 3.0624998 3.0624998 0 01-4.00135-1.65741zM225.375-245.04405l16.55635 32.87643c0 0 10.56865 14.10544 10.56865 14.10544 0 0-6.93135-16.20544-6.93135-16.20544L225.375-245.04405zM192.2377-183.60553a3.0624999 3.0624999 0 012.63656-3.43604 3.0624999 3.0624999 0 013.43604 2.63656 3.0624999 3.0624999 0 01-2.63656 3.43604 3.0624999 3.0624999 0 01-3.43604-2.63656zM240.14733-251.16296l7.48316 36.0413c0 0 6.55778 16.36018 6.55778 16.36018 0 0-2.50089-17.44722-2.50089-17.44722l-11.54005-34.95426zM192.2377-200.39447a3.0624999 3.0624999 0 013.43604-2.63656 3.0624999 3.0624999 0 012.63656 3.43604 3.0624999 3.0624999 0 01-3.43604 2.63656 3.0624999 3.0624999 0 01-2.63656-3.43604zM256-253.25l-2.1 36.75c0 0 2.1 17.5 2.1 17.5 0 0 2.1-17.5 2.1-17.5l-2.1-36.75zM196.583-216.61133a3.0624999 3.0624999 0 014.00135-1.65741 3.0624999 3.0624999 0 011.65741 4.00135 3.0624999 3.0624999 0 01-4.00135 1.65741 3.0624999 3.0624999 0 01-1.65741-4.00135zM271.85267-251.16296l-11.54005 34.95426c0 0-2.50089 17.44722-2.50089 17.44722 0 0 6.55778-16.36018 6.55778-16.36018l7.48316-36.0413zM204.97747-231.15097a3.0624999 3.0624999 0 014.29397-.56531 3.0624999 3.0624999 0 01.56531 4.29397 3.0624999 3.0624999 0 01-4.29397.56531 3.0624999 3.0624999 0 01-.56531-4.29397zM286.625-245.04405l-20.19365 30.77643c0 0-6.93135 16.20544-6.93135 16.20544 0 0 10.56865-14.10544 10.56865-14.10544l16.55635-32.87643zM216.84903-243.02253a3.0624999 3.0624999 0 014.29397.56531 3.0624999 3.0624999 0 01-.56531 4.29397 3.0624999 3.0624999 0 01-4.29397-.56531 3.0624999 3.0624999 0 01.56531-4.29397zM299.31029-235.31029l-27.4711 24.50125c0 0-10.88944 13.85929-10.88944 13.85929 0 0 13.85929-10.88944 13.85929-10.88944l24.50125-27.4711zM231.38867-251.417a3.0624999 3.0624999 0 014.00135 1.65741 3.0624999 3.0624999 0 01-1.65741 4.00135 3.0624999 3.0624999 0 01-4.00135-1.65741 3.0624999 3.0624999 0 011.65741-4.00135zM309.04405-222.625l-32.87643 16.55635c0 0-14.10544 10.56865-14.10544 10.56865 0 0 16.20544-6.93135 16.20544-6.93135l30.77643-20.19365zM247.60553-255.7623a3.0624999 3.0624999 0 013.43604 2.63656 3.0624999 3.0624999 0 01-2.63656 3.43604 3.0624999 3.0624999 0 01-3.43604-2.63656 3.0624999 3.0624999 0 012.63656-3.43604zM315.16296-207.85267l-36.0413 7.48316c0 0-16.36018 6.55778-16.36018 6.55778 0 0 17.44722-2.50089 17.44722-2.50089l34.95426-11.54005zM264.39447-255.7623a3.0624999 3.0624999 0 012.63656 3.43604 3.0624999 3.0624999 0 01-3.43604 2.63656 3.0624999 3.0624999 0 01-2.63656-3.43604 3.0624999 3.0624999 0 013.43604-2.63656zM317.25-192l-36.75-2.1c0 0-17.5 2.1-17.5 2.1 0 0 17.5 2.1 17.5 2.1l36.75-2.1zM280.61133-251.417a3.0624999 3.0624999 0 011.65741 4.00135 3.0624999 3.0624999 0 01-4.00135 1.65741 3.0624999 3.0624999 0 01-1.65741-4.00135 3.0624999 3.0624999 0 014.00135-1.65741zM315.16296-176.14733l-34.95426-11.54005c0 0-17.44722-2.50089-17.44722-2.50089 0 0 16.36018 6.55778 16.36018 6.55778l36.0413 7.48316zM295.15097-243.02253a3.0624999 3.0624999 0 01.56531 4.29397 3.0624999 3.0624999 0 01-4.29397.56531 3.0624999 3.0624999 0 01-.56531-4.29397 3.0624999 3.0624999 0 014.29397-.56531zM309.04405-161.375l-30.77643-20.19365c0 0-16.20544-6.93135-16.20544-6.93135 0 0 14.10544 10.56865 14.10544 10.56865l32.87643 16.55635zM307.02253-231.15097a3.0624999 3.0624999 0 01-.56531 4.29397 3.0624999 3.0624999 0 01-4.29397-.56531 3.0624999 3.0624999 0 01.56531-4.29397 3.0624999 3.0624999 0 014.29397.56531zM299.31029-148.68971l-24.50125-27.4711c0 0-13.85929-10.88944-13.85929-10.88944 0 0 10.88944 13.85929 10.88944 13.85929l27.4711 24.50125zM315.417-216.61133a3.0624998 3.0624998 0 01-1.65741 4.00135 3.0624998 3.0624998 0 01-4.00135-1.65741 3.0624998 3.0624998 0 011.65741-4.00135 3.0624998 3.0624998 0 014.00135 1.65741zM286.625-138.95595l-16.55635-32.87643c0 0-10.56865-14.10544-10.56865-14.10544 0 0 6.93135 16.20544 6.93135 16.20544l20.19365 30.77643zM319.7623-200.39447a3.0624999 3.0624999 0 01-2.63656 3.43604 3.0624999 3.0624999 0 01-3.43604-2.63656 3.0624999 3.0624999 0 012.63656-3.43604 3.0624999 3.0624999 0 013.43604 2.63656zM271.85267-132.83704l-7.48316-36.0413c0 0-6.55778-16.36018-6.55778-16.36018 0 0 2.50089 17.44722 2.50089 17.44722l11.54005 34.95426z"/></g></svg>